<?xml version="1.0" encoding="UTF-8"?>
<svg xmlns="http://www.w3.org/2000/svg" xmlns:xlink="http://www.w3.org/1999/xlink" width="703pt" height="703pt" viewBox="0 0 703 703" version="1.1">
<g id="surface1">
<path style=" stroke:none;fill-rule:nonzero;fill:rgb(0%,0%,0%);fill-opacity:1;" d="M 644.417969 93.734375 C 644.417969 74.3125 628.6875 58.582031 609.265625 58.582031 L 93.734375 58.582031 C 74.3125 58.582031 58.582031 74.3125 58.582031 93.734375 L 58.582031 439.375 L 644.417969 439.375 Z M 585.832031 380.792969 L 117.167969 380.792969 L 117.167969 117.167969 L 585.832031 117.167969 Z M 644.417969 468.667969 L 58.582031 468.667969 C 52.8125 479.5625 0 602.882812 0 615.066406 C 0 630.355469 12.242188 644.417969 29.351562 644.417969 L 673.648438 644.417969 C 690.757812 644.417969 703 630.355469 703 615.066406 C 703 602.882812 650.1875 479.5625 644.417969 468.667969 Z M 286.207031 615.125 L 299.886719 585.832031 L 403.082031 585.832031 L 416.761719 615.125 Z M 286.207031 615.125 "/>
</g>
</svg>
